<?xml version="1.0" encoding="utf-8"?>
<!-- Generator: Adobe Illustrator 16.0.0, SVG Export Plug-In . SVG Version: 6.00 Build 0)  -->
<!DOCTYPE svg PUBLIC "-//W3C//DTD SVG 1.1//EN" "http://www.w3.org/Graphics/SVG/1.1/DTD/svg11.dtd">
<svg version="1.1" xmlns="http://www.w3.org/2000/svg" xmlns:xlink="http://www.w3.org/1999/xlink" x="0px" y="0px"
	 width="80px" height="40px" viewBox="0 0 80 40" enable-background="new 0 0 80 40" xml:space="preserve" style="fill: #FFF;">
<path d="M5.833,23.333H12.5v-6.666H5.833V23.333z M5.833,31.667H12.5V25H5.833V31.667z M5.833,15H12.5V8.334H5.833V15z
	 M14.167,23.333h20v-6.666h-20V23.333z M14.167,31.667h20V25h-20V31.667z M14.167,8.334V15h20V8.334H14.167z"/>
<path d="M45.834,19.167h8.333v-10h-8.333V19.167z M45.834,30.834h8.333v-10h-8.333V30.834z M55.834,30.834h8.333v-10h-8.333V30.834z
	 M65.834,30.834h8.333v-10h-8.333V30.834z M55.834,19.167h8.333v-10h-8.333V19.167z M65.834,9.167v10h8.333v-10H65.834z"/>
</svg>
